      ßßßßßßßßßßßßßßßßßßßßßßßßßßßßßßßßßßßßßßßßßßßßßßßßßßßßßßßßßßßßßßßßßßßßßß

                 Û°°°°°°°°°°°°°°°°°°°°°°°°°°°°°°°°°°°°°°°°°Û
                ÛÛ Land Of The Lost[2009]{Proper}DvDrip-LW ÛÛ
                 Û°°°°°°°°°°°°°°°°°°°°°°°°°°°°°°°°°°°°°°°°°Û

File Name    : Land Of The Lost[2009]{Proper}DvDrip-LW
Type         : Movie
Format       : AVI
File Size    : 1.91 GB
Duration     : 01:37:25
Language     : English
Source       : DvD
Subtitles    : None
Genre        : Adventure | Comedy | Sci-Fi
IMDB Link    : http://www.imdb.com/title/tt0457400/
IMDB Rating  : 5.4/10
IMDB Votes   : 4,381 Votes
     ÜÜÜÜÜÜÜÜÜÜÜÜÜÜÜÜÜÜÜÜÜÜÜÜÜÜÜÜÜÜÜÜÜÜÜÜÜÜÜÜÜÜÜÜÜÜÜÜÜÜÜÜÜÜÜÜÜÜÜÜÜÜÜÜÜÜÜÜÜÜ
 
                        Û°°°°°°°°°°°°°°°°°°°°°°°°Û
                       ÛÛ       Video Info       ÛÛ
                        Û°°°°°°°°°°°°°°°°°°°°°°°°Û

Format                           : xvid
Codec ID                         : xvid
Duration                         : 4h 6mn
Bit rate                         : 1 060 Kbps
Width                            : 640 pixels
Height                           : 272 pixels
Display aspect ratio             : 2.35
Frame rate                       : 25.000 fps
Resolution                       : 24 bits
Bits/(Pixel*Frame)               : 0.244
Stream size                      : 1.83 GiB (96%)
     ÜÜÜÜÜÜÜÜÜÜÜÜÜÜÜÜÜÜÜÜÜÜÜÜÜÜÜÜÜÜÜÜÜÜÜÜÜÜÜÜÜÜÜÜÜÜÜÜÜÜÜÜÜÜÜÜÜÜÜÜÜÜÜÜÜÜÜÜÜÜ

                         Û°°°°°°°°°°°°°°°°°°°°°°°°Û
                        ÛÛ      Sound Info        ÛÛ
                         Û°°°°°°°°°°°°°°°°°°°°°°°°Û

Format                           : MPEG Audio
Format version                   : Version 2
Format profile                   : Layer 3
Codec ID                         : 55
Codec ID/Hint                    : MP3
Duration                         : 3h 14mn
Bit rate mode                    : Constant
Bit rate                         : 112 Kbps
Channel(s)                       : 2 channels
Sampling rate                    : 22.05 KHz
Resolution                       : 16 bits
Stream size                      : 78.0 MiB (4%)
Alignment                        : Aligned on interleaves
Interleave, duration             : 26 ms (0.65 video frame)
Writing library                  : LAME3.98 (alpha)
    ÜÜÜÜÜÜÜÜÜÜÜÜÜÜÜÜÜÜÜÜÜÜÜÜÜÜÜÜÜÜÜÜÜÜÜÜÜÜÜÜÜÜÜÜÜÜÜÜÜÜÜÜÜÜÜÜÜÜÜÜÜÜÜÜÜÜÜÜÜÜ

                          Û°°°°°°°°°°°°°°°°°°°°°°°°Û
                         ÛÛ          Plot          ÛÛ
                          Û°°°°°°°°°°°°°°°°°°°°°°°°Û

After accidentally uncovering a portal to an alternate 
universe peopled with dinosaurs, Sleestaks and other 
strange creatures, park ranger Rick Marshall (Will 
Ferrell) and his two kids are forced to navigate a 
dangerous new world. Brad Silberling directs this 
big-screen adaptation of the classic 1970s adventure 
series "Land of the Lost," the high-concept, low-budget 
fantasy dreamed up by famed children's television 
producers Sid and Marty Krofft.

Starring: Will Ferrell, Anna Friel

Director: Brad Silberling
    ÜÜÜÜÜÜÜÜÜÜÜÜÜÜÜÜÜÜÜÜÜÜÜÜÜÜÜÜÜÜÜÜÜÜÜÜÜÜÜÜÜÜÜÜÜÜÜÜÜÜÜÜÜÜÜÜÜÜÜÜÜÜÜÜÜÜÜÜÜÜ

ScreenShots
 
http://imgshack.info/images/v4lw4pzjntfo7tzl5t3h.png
 
http://imgshack.info/images/3otoxo6jkdqx6hwitc9b.png
 
http://imgshack.info/images/y2p4i068euzindpzfo.png